<?xml version="1.0" encoding="iso-8859-1"?>
<!-- Generator: Adobe Illustrator 19.0.0, SVG Export Plug-In . SVG Version: 6.00 Build 0)  -->
<svg version="1.1" id="Capa_1" xmlns="http://www.w3.org/2000/svg" xmlns:xlink="http://www.w3.org/1999/xlink" x="0px" y="0px"
	 viewBox="0 0 512 512" style="enable-background:new 0 0 512 512;" xml:space="preserve">
<rect x="20" y="82" style="fill:#C9F3FF;" width="472" height="328"/>
<rect x="10" y="10" style="fill:#4DBAF6;" width="492" height="72"/>
<circle style="fill:#72D8FF;" cx="256" cy="482" r="20"/>
<path style="fill:#FFC66C;" d="M318.533,123.159h-12.195c-15.148,0-27.428,12.28-27.428,27.428l0,0
	c0,5.626-4.561,10.187-10.187,10.187l0,0c-9.954,0-18.024,8.07-18.024,18.024l0,0c0,12.118,9.824,21.942,21.942,21.942h43.931
	v29.268l16.424,0.041c4.657,0.012,8.446-3.746,8.472-8.403l0,0c0.026-4.649,3.802-8.403,8.451-8.403h47.499
	c9.745,0,17.644-7.9,17.644-17.644l0,0c0-5.904,4.786-10.691,10.691-10.691l0,0c5.904,0,10.691-4.786,10.691-10.691v-8.854
	c0-5.904-4.786-10.691-10.691-10.691h-4.636c-5.904,0-10.691-4.786-10.691-10.691V133.85c0-5.904-4.786-10.691-10.691-10.691
	C399.735,123.159,318.533,123.159,318.533,123.159z"/>
<g>
	<path style="fill:#A0E557;" d="M126.557,217.19h27.935c10.571,0,19.14-8.569,19.14-19.14v-0.786c0-10.571,8.569-19.14,19.14-19.14
		l0,0c10.571,0,19.14-8.569,19.14-19.14v-4.187c0-10.571-8.569-19.14-19.14-19.14H87.036c-11.257,0-20.383,9.126-20.383,20.383l0,0
		c0,11.257,9.126,20.383,20.383,20.383l0,0c10.429,0,18.905,8.415,18.98,18.844l0.011,1.539
		C106.108,208.088,115.276,217.19,126.557,217.19z"/>
	<path style="fill:#A0E557;" d="M306.594,230.009h-54.443c-11.807,0-21.378,9.571-21.378,21.378v9.413
		c0,11.807,9.571,21.378,21.378,21.378l0,0c9.057,0,16.399,7.342,16.399,16.399v59.245l20.045-22.178
		c2.787-3.083,6.748-4.843,10.904-4.843l0,0c8.118,0,14.698-6.581,14.698-14.698v-21.257c0-5.651,4.581-10.231,10.231-10.231h4.722
		c5.651,0,10.231-4.581,10.231-10.231v-11.585c0-5.651-4.581-10.231-10.231-10.231l0,0c-5.651,0-10.231-4.581-10.231-10.231l0,0
		C318.919,235.527,313.401,230.009,306.594,230.009z"/>
</g>
<path style="fill:#FFC66C;" d="M158.866,251.286h-41.575c-9.939,0-17.997,8.057-17.997,17.997v9.604
	c0,9.939,8.057,17.997,17.997,17.997l0,0c9.417,0,17.051,7.634,17.051,17.051v38.804c0,8.893,7.209,16.103,16.103,16.103l0,0
	c8.893,0,16.103-7.209,16.103-16.103v-12.333c0-7.644,6.197-13.841,13.841-13.841h7.695c10.965,0,19.855-8.889,19.855-19.855l0,0
	c0-10.965-8.889-19.855-19.855-19.855h-2.858c-4.736,0-8.574-3.839-8.574-8.574v-9.21
	C176.651,259.248,168.688,251.286,158.866,251.286z"/>
<path style="fill:#72D8FF;" d="M437.646,305.137h-15.001c-10.94,0-19.809-8.869-19.809-19.809l0,0
	c0-10.94,8.869-19.809,19.809-19.809h15.001c10.94,0,19.809,8.869,19.809,19.809l0,0
	C457.455,296.268,448.587,305.137,437.646,305.137z"/>
<path d="M351.67,20c2.63,0,5.21-1.07,7.07-2.93s2.93-4.44,2.93-7.07s-1.07-5.21-2.93-7.07C356.88,1.07,354.3,0,351.67,0
	c-2.64,0-5.21,1.07-7.07,2.93c-1.87,1.86-2.93,4.44-2.93,7.07s1.06,5.21,2.93,7.07C346.46,18.93,349.04,20,351.67,20z"/>
<path d="M502,0H392.333c-5.523,0-10,4.477-10,10s4.477,10,10,10H492v52H20V20h289c5.523,0,10-4.477,10-10s-4.477-10-10-10H10
	C4.477,0,0,4.477,0,10v72c0,5.523,4.477,10,10,10v318c0,5.523,4.477,10,10,10h39.5c5.523,0,10-4.477,10-10s-4.477-10-10-10H30V92
	h452v308H140c-5.523,0-10,4.477-10,10s4.477,10,10,10h106v33.72c-11.639,4.128-20,15.243-20,28.28c0,16.542,13.458,30,30,30
	s30-13.458,30-30c0-13.036-8.361-24.152-20-28.28V420h226c5.523,0,10-4.477,10-10V92c5.523,0,10-4.477,10-10V10
	C512,4.477,507.523,0,502,0z M256,492c-5.514,0-10-4.486-10-10s4.486-10,10-10s10,4.486,10,10S261.514,492,256,492z"/>
<path d="M192.771,125.659H87.036c-16.753,0-30.383,13.63-30.383,30.383s13.63,30.383,30.383,30.383c4.916,0,8.944,4,8.98,8.917
	l0.011,1.538c0.12,16.713,13.815,30.311,30.53,30.311h27.934c16.068,0,29.14-13.072,29.14-29.14v-0.786c0-5.04,4.1-9.14,9.14-9.14
	c16.068,0,29.14-13.072,29.14-29.14v-4.187C221.911,138.731,208.839,125.659,192.771,125.659z M201.911,158.985
	c0,5.04-4.1,9.14-9.14,9.14c-16.068,0-29.14,13.072-29.14,29.14v0.786c0,5.04-4.1,9.14-9.14,9.14h-27.934
	c-5.765,0-10.489-4.69-10.531-10.456l-0.011-1.538c-0.113-15.865-13.113-28.772-28.979-28.772c-5.725,0-10.383-4.658-10.383-10.383
	s4.658-10.383,10.383-10.383h105.735c5.04,0,9.14,4.1,9.14,9.14V158.985z"/>
<path d="M252.151,220.008c-17.302,0-31.378,14.076-31.378,31.378v9.413c0,17.302,14.076,31.378,31.378,31.378
	c3.528,0,6.399,2.871,6.399,6.399v59.245c0,4.137,2.547,7.846,6.408,9.333c1.169,0.45,2.385,0.668,3.59,0.668
	c2.774,0,5.488-1.156,7.421-3.295l20.044-22.178c0.89-0.984,2.16-1.548,3.486-1.548c13.618,0,24.698-11.08,24.698-24.698v-21.258
	c0-0.127,0.104-0.231,0.231-0.231h4.722c11.155,0,20.231-9.076,20.231-20.231v-11.585c0-11.155-9.076-20.231-20.231-20.231
	c-0.127,0-0.231-0.104-0.231-0.231c0-0.774-0.04-1.54-0.117-2.294l4.169,0.011c0.016,0,0.031,0,0.047,0
	c9.602,0,17.541-7.4,18.377-16.806h46.022c15.243,0,27.644-12.401,27.644-27.645c0-0.381,0.31-0.69,0.691-0.69
	c11.409,0,20.69-9.282,20.69-20.691v-8.854c0-11.409-9.282-20.69-20.69-20.69h-4.636c-0.381,0-0.69-0.31-0.69-0.69V133.85
	c0-11.409-9.282-20.69-20.691-20.69h-93.397c-20.638,0-37.428,16.79-37.428,37.428c0,0.103-0.084,0.187-0.188,0.187
	c-15.453,0-28.024,12.571-28.024,28.024c0,17.613,14.329,31.942,31.942,31.942h33.931v9.268h-54.42V220.008z M329.15,262.565
	c0.127,0,0.231,0.104,0.231,0.231v11.585c0,0.127-0.104,0.231-0.231,0.231h-4.722c-11.156,0-20.231,9.076-20.231,20.231v21.258
	c0,2.59-2.107,4.698-4.698,4.698c-6.97,0-13.649,2.966-18.323,8.138l-2.625,2.905v-33.266c0-14.557-11.842-26.399-26.399-26.399
	c-6.274,0-11.378-5.104-11.378-11.378v-9.413c0-6.274,5.104-11.378,11.378-11.378h54.443c1.282,0,2.325,1.043,2.325,2.325
	C308.919,253.489,317.995,262.565,329.15,262.565z M272.641,190.74c-6.585,0-11.942-5.357-11.942-11.942
	c0-4.424,3.6-8.024,8.024-8.024c11.131,0,20.188-9.056,20.188-20.187c0-9.61,7.818-17.428,17.428-17.428h93.397
	c0.381,0,0.691,0.31,0.691,0.69v10.133c0,11.409,9.282,20.69,20.69,20.69h4.636c0.381,0,0.69,0.31,0.69,0.69v8.854
	c0,0.381-0.31,0.691-0.69,0.691c-11.409,0-20.691,9.282-20.691,20.69c0,4.215-3.429,7.645-7.644,7.645h-47.499
	c-9.597,0-17.538,7.406-18.378,16.802l-4.969-0.012V200.74c0-5.523-4.477-10-10-10H272.641z"/>
<path d="M150.444,378.841c14.393,0,26.103-11.709,26.103-26.103v-12.333c0-2.118,1.723-3.841,3.841-3.841h7.695
	c16.462,0,29.855-13.393,29.855-29.854s-13.393-29.855-29.855-29.855h-1.432v-7.784c0-15.32-12.464-27.785-27.785-27.785h-41.575
	c-15.438,0-27.997,12.559-27.997,27.997v9.604c0,15.438,12.56,27.997,27.997,27.997c3.888,0,7.05,3.163,7.05,7.05v38.804
	C124.341,367.131,136.051,378.841,150.444,378.841z M117.291,286.884c-4.41,0-7.997-3.587-7.997-7.997v-9.604
	c0-4.409,3.587-7.997,7.997-7.997h41.575c4.292,0,7.785,3.492,7.785,7.785v9.21c0,10.242,8.333,18.574,18.574,18.574h2.858
	c5.434,0,9.855,4.421,9.855,9.855c0,5.434-4.421,9.854-9.855,9.854h-7.695c-13.146,0-23.841,10.695-23.841,23.841v12.333
	c0,3.365-2.738,6.103-6.103,6.103c-3.365,0-6.103-2.738-6.103-6.103v-38.804C144.341,299.019,132.207,286.884,117.291,286.884z"/>
<path d="M422.645,255.519c-16.437,0-29.809,13.372-29.809,29.809s13.372,29.809,29.809,29.809h15.001
	c16.437,0,29.81-13.372,29.81-29.809s-13.373-29.809-29.81-29.809H422.645z M447.456,285.328c0,5.409-4.4,9.809-9.81,9.809h-15.001
	c-5.409,0-9.809-4.4-9.809-9.809s4.4-9.809,9.809-9.809h15.001C443.055,275.519,447.456,279.919,447.456,285.328z"/>
<path d="M99.29,400c-2.63,0-5.2,1.07-7.07,2.93c-1.86,1.86-2.93,4.44-2.93,7.07s1.07,5.21,2.93,7.07c1.86,1.86,4.44,2.93,7.07,2.93
	s5.21-1.07,7.08-2.93c1.86-1.86,2.92-4.44,2.92-7.07s-1.06-5.21-2.92-7.07C104.5,401.07,101.92,400,99.29,400z"/>
<g>
</g>
<g>
</g>
<g>
</g>
<g>
</g>
<g>
</g>
<g>
</g>
<g>
</g>
<g>
</g>
<g>
</g>
<g>
</g>
<g>
</g>
<g>
</g>
<g>
</g>
<g>
</g>
<g>
</g>
</svg>
