<?xml version="1.0" encoding="iso-8859-1"?>
<!-- Generator: Adobe Illustrator 19.0.0, SVG Export Plug-In . SVG Version: 6.00 Build 0)  -->
<svg version="1.1" id="Capa_1" xmlns="http://www.w3.org/2000/svg" xmlns:xlink="http://www.w3.org/1999/xlink" x="0px" y="0px"
	 viewBox="0 0 512.001 512.001" style="enable-background:new 0 0 512.001 512.001;" xml:space="preserve">
<path style="fill:#ADE5FF;" d="M496.171,405.528l-90.644,90.644c-7.772,7.772-20.372,7.772-28.144,0L15.829,134.618
	c-7.772-7.772-7.772-20.372,0-28.144l90.644-90.644c7.772-7.772,20.372-7.772,28.144,0l361.554,361.554
	C503.943,385.156,503.943,397.756,496.171,405.528z"/>
<path style="fill:#FFB954;" d="M98.868,337.106L393.671,42.303c10.497-10.497,27.517-10.497,38.014,0l38.014,38.014
	c10.497,10.497,10.497,27.517,0,38.014L174.895,413.133L98.868,337.106z"/>
<path style="fill:#FF5D5D;" d="M433.432,154.596l36.266-36.266c10.497-10.497,10.497-27.517,0-38.014l-38.014-38.014
	c-10.497-10.497-27.517-10.497-38.014,0l-36.266,36.266L433.432,154.596z"/>
<polygon style="fill:#7D9BFF;" points="34.429,477.572 98.868,337.106 174.895,413.133 "/>
<polygon style="fill:#5A54E0;" points="100.5,445.301 66.7,411.501 34.429,477.572 "/>
<path d="M503.242,370.313l-24.937-24.937c-0.002-0.002-0.003-0.003-0.005-0.005s-0.003-0.003-0.005-0.005l-38.954-38.954
	c-0.002-0.002-0.003-0.003-0.005-0.005s-0.003-0.003-0.005-0.005l-71.781-71.781l109.22-109.22
	c6.966-6.966,10.802-16.227,10.802-26.078s-3.836-19.112-10.802-26.078l-38.014-38.013c-6.966-6.966-16.227-10.802-26.078-10.802
	s-19.112,3.836-26.078,10.802L277.381,144.451l-71.828-71.828l0,0l0,0l-38.975-38.975c-0.001-0.001-0.002-0.002-0.003-0.003
	s-0.002-0.002-0.003-0.003L141.688,8.758c-11.659-11.659-30.629-11.657-42.286,0L8.758,99.402C3.11,105.05,0,112.559,0,120.546
	s3.11,15.496,8.758,21.143L144.45,277.382l-52.653,52.653c-0.84,0.84-1.522,1.822-2.018,2.901L25.34,473.402
	c-1.744,3.801-0.938,8.285,2.018,11.241c1.917,1.917,4.476,2.93,7.074,2.93c1.409,0,2.83-0.298,4.167-0.911l140.467-64.439
	c1.079-0.495,2.062-1.179,2.901-2.018l52.653-52.653l42.992,42.992c1.953,1.953,4.512,2.929,7.071,2.929s5.118-0.976,7.071-2.929
	c3.905-3.905,3.905-10.237,0-14.143l-42.992-42.992l104.645-104.646l25.751,25.751l-9.56,9.56c-3.905,3.905-3.905,10.237,0,14.143
	c1.953,1.953,4.512,2.929,7.071,2.929s5.118-0.976,7.071-2.929l9.56-9.56l24.822,24.822l-28.567,28.567
	c-3.905,3.905-3.905,10.237,0,14.142c1.953,1.953,4.512,2.929,7.071,2.929c2.559,0,5.118-0.977,7.071-2.929l28.567-28.567
	l24.822,24.822l-9.56,9.56c-3.905,3.905-3.905,10.237,0,14.143c1.953,1.953,4.512,2.929,7.071,2.929s5.118-0.976,7.071-2.929
	l9.56-9.56l17.871,17.871c1.87,1.87,2.899,4.356,2.899,7s-1.029,5.131-2.9,7.001l-90.642,90.643c-3.858,3.86-10.142,3.861-14.002,0
	l-36.047-36.047c-3.906-3.905-10.236-3.905-14.143,0c-3.905,3.905-3.905,10.237,0,14.143l36.048,36.047
	c5.829,5.829,13.486,8.743,21.143,8.743s15.314-2.915,21.144-8.744l90.644-90.644c5.647-5.647,8.758-13.157,8.758-21.144
	S508.89,375.961,503.242,370.313z M174.895,398.991l-61.884-61.885L357.405,92.711l33.24,33.24l-82.418,82.419
	c-3.905,3.905-3.905,10.237,0,14.142c1.953,1.953,4.512,2.929,7.071,2.929s5.118-0.977,7.071-2.929l82.418-82.418l14.502,14.503
	L174.895,398.991z M400.742,49.374c3.188-3.188,7.427-4.944,11.936-4.944s8.747,1.756,11.936,4.944l38.014,38.014
	c6.582,6.581,6.582,17.29,0,23.871l-29.195,29.195l-61.885-61.885L400.742,49.374z M22.899,127.546c-1.87-1.87-2.899-4.356-2.899-7
	s1.029-5.131,2.9-7.001l90.644-90.644c3.858-3.859,10.142-3.861,14.002,0l17.813,17.813l-9.561,9.56
	c-3.905,3.905-3.905,10.237,0,14.142c1.953,1.953,4.512,2.929,7.071,2.929s5.118-0.977,7.071-2.929l9.561-9.56l24.836,24.837
	L155.77,108.26c-3.905,3.905-3.905,10.237,0,14.142c1.953,1.953,4.512,2.929,7.071,2.929s5.118-0.977,7.071-2.929l28.566-28.567
	l24.822,24.822l-9.56,9.56c-3.905,3.905-3.905,10.237,0,14.143c1.953,1.953,4.512,2.929,7.071,2.929s5.118-0.976,7.071-2.929
	l9.56-9.56l25.793,25.793L158.592,263.24L22.899,127.546z M101.963,354.343l55.695,55.696l-53.661,24.617l-26.652-26.652
	L101.963,354.343z M68.45,427.394l16.157,16.157l-29.852,13.694L68.45,427.394z"/>
<path d="M315.3,424.091c-2.64,0-5.21,1.06-7.07,2.92c-1.859,1.87-2.93,4.44-2.93,7.08c0,2.63,1.07,5.21,2.93,7.07
	c1.86,1.86,4.44,2.93,7.07,2.93s5.21-1.07,7.07-2.93c1.859-1.86,2.93-4.44,2.93-7.07c0-2.64-1.07-5.21-2.93-7.08
	C320.51,425.151,317.93,424.091,315.3,424.091z"/>
<path d="M288.56,232.181c-2.64,0-5.21,1.07-7.069,2.93c-1.87,1.86-2.931,4.44-2.931,7.07s1.061,5.21,2.931,7.07
	c1.859,1.86,4.43,2.93,7.069,2.93c2.63,0,5.21-1.07,7.07-2.93c1.86-1.86,2.93-4.44,2.93-7.07s-1.069-5.21-2.93-7.07
	S291.189,232.181,288.56,232.181z"/>
<g>
</g>
<g>
</g>
<g>
</g>
<g>
</g>
<g>
</g>
<g>
</g>
<g>
</g>
<g>
</g>
<g>
</g>
<g>
</g>
<g>
</g>
<g>
</g>
<g>
</g>
<g>
</g>
<g>
</g>
</svg>
