<?xml version="1.0" encoding="iso-8859-1"?>
<!-- Generator: Adobe Illustrator 19.0.0, SVG Export Plug-In . SVG Version: 6.00 Build 0)  -->
<svg version="1.1" id="Capa_1" xmlns="http://www.w3.org/2000/svg" xmlns:xlink="http://www.w3.org/1999/xlink" x="0px" y="0px"
	 viewBox="0 0 511.999 511.999" style="enable-background:new 0 0 511.999 511.999;" xml:space="preserve">
<path style="fill:#FFFFFF;" d="M47.999,64.004v383.991l0,0c0,29.822,24.176,53.999,53.999,53.999l0,0l0,0h329.559
	c0,0-17.08-0.614-32.705-16.818c-15.483-16.057-14.861-37.181-14.861-37.181V338.998V75.172V64.004l0,0
	c0-29.822-24.176-53.999-53.999-53.999l0,0l0,0c-29.822,0-53.999,24.176-53.999,53.999l0,0H47.999z"/>
<circle style="fill:#FF5D5D;" cx="383.991" cy="179.465" r="65.998"/>
<g>
	<polygon style="fill:#4DBAF6;" points="443.06,208.924 502,313.841 454.575,300.474 442.441,348.229 384.12,247.215 	"/>
	<polygon style="fill:#4DBAF6;" points="324.431,212.828 266.111,313.841 313.536,300.474 325.67,348.229 379.661,256 	"/>
</g>
<g>
	<path style="fill:#FFC66C;" d="M329.992,10.005H63.998C34.176,10.005,10,34.182,10,64.004l0,0h265.994l0,0
		C275.994,34.181,300.17,10.005,329.992,10.005z"/>
	<path style="fill:#FFC66C;" d="M491.988,447.995L491.988,447.995c0,29.822-24.176,53.999-53.999,53.999l0,0l0,0
		c-29.822,0-53.999-24.176-53.999-53.999l0,0H491.988z"/>
</g>
<path d="M48.002,164.962c2.63,0,5.2-1.07,7.069-2.93c1.86-1.86,2.931-4.431,2.931-7.07c0-2.63-1.07-5.21-2.931-7.07
	c-1.859-1.859-4.439-2.93-7.069-2.93c-2.63,0-5.21,1.07-7.07,2.93c-1.87,1.86-2.93,4.44-2.93,7.07c0,2.64,1.06,5.21,2.93,7.07
	C42.792,163.891,45.372,164.962,48.002,164.962z"/>
<path d="M510.718,308.944l-56.475-100.529c3.694-8.93,5.745-18.705,5.745-28.953c0-38.514-28.805-70.406-65.998-75.319V64.004
	c0-35.289-28.709-63.999-63.999-63.999H63.998C28.709,0.006,0,28.715,0,64.004c0,5.522,4.478,10,10,10h27.999v34.999
	c0,5.522,4.478,10,10,10s10-4.478,10-10V74.004h217.995c5.522,0,10-4.478,10-10c0-24.261,19.738-43.999,43.999-43.999
	s43.999,19.738,43.999,43.999v40.139c-37.193,4.914-65.998,36.806-65.998,75.319c0,10.896,2.322,21.255,6.471,30.632l-57.013,98.748
	c-2.034,3.523-1.731,7.928,0.767,11.139c2.497,3.212,6.69,4.592,10.606,3.486l37.548-10.584l9.607,37.809
	c1,3.933,4.276,6.871,8.293,7.438c0.47,0.066,0.938,0.099,1.402,0.099c3.515,0,6.816-1.855,8.627-4.948l39.691-67.802v162.516
	c0,17.033,6.701,32.52,17.59,43.999H101.998c-24.261,0-43.999-19.738-43.999-43.999V197.001c0-5.522-4.478-10-10-10s-10,4.478-10,10
	v250.994c0,35.289,28.709,63.998,63.998,63.998c0,0,334.456,0,335.992,0c35.289,0,63.999-28.709,63.999-63.998
	c0-5.522-4.478-10-10-10h-97.998V284.311l39.79,68.918c1.803,3.122,5.121,5.001,8.657,5c0.455,0,0.913-0.031,1.372-0.094
	c4.03-0.558,7.321-3.501,8.323-7.443l9.607-37.809l37.547,10.584c3.896,1.1,8.069-0.26,10.57-3.439
	C512.36,316.846,512.7,312.472,510.718,308.944z M266.781,54.004H21.146c4.539-19.461,22.029-33.999,42.853-33.999h219.585
	C274.87,29.191,268.839,40.943,266.781,54.004z M383.991,123.464c30.878,0,55.999,25.12,55.999,55.999s-25.12,55.999-55.999,55.999
	s-55.999-25.12-55.999-55.999S353.113,123.464,383.991,123.464z M329.358,322.136l-6.131-24.125
	c-0.665-2.614-2.356-4.849-4.692-6.197s-5.118-1.696-7.713-0.965l-23.756,6.696l39.49-68.398
	c10.875,12.554,25.773,21.523,42.682,24.864L329.358,322.136z M480.843,457.995c-4.539,19.461-22.029,33.999-42.853,33.999
	s-38.313-14.539-42.853-33.999H480.843z M457.288,290.849c-2.595-0.731-5.377-0.384-7.713,0.965s-4.027,3.583-4.692,6.197
	l-6.078,23.921l-39.3-68.069c17.073-3.556,32.059-12.859,42.846-25.784l39.087,69.578L457.288,290.849z"/>
<path d="M109.995,292.999h86.753c5.522,0,10-4.478,10-10c0-5.522-4.478-10-10-10h-86.753c-5.522,0-10,4.478-10,10
	C99.996,288.521,104.474,292.999,109.995,292.999z"/>
<path d="M109.995,342.004h86.753c5.522,0,10-4.478,10-10s-4.478-10-10-10h-86.753c-5.522,0-10,4.478-10,10
	S104.474,342.004,109.995,342.004z"/>
<path d="M109.995,136.61h51.357c5.522,0,10-4.478,10-10c0-5.522-4.478-10-10-10h-51.357c-5.522,0-10,4.478-10,10
	C99.996,132.132,104.474,136.61,109.995,136.61z"/>
<path d="M109.995,239h146.129c5.522,0,10-4.478,10-10c0-5.522-4.478-10-10-10H109.995c-5.522,0-10,4.478-10,10
	C99.996,234.522,104.474,239,109.995,239z"/>
<path d="M266.111,428.329h47.552c5.522,0,10-4.478,10-10c0-5.522-4.478-10-10-10h-47.552c-5.522,0-10,4.478-10,10
	C256.111,423.851,260.589,428.329,266.111,428.329z"/>
<path d="M217.53,408.329c-5.522,0-10,4.478-10,10c0,5.522,4.478,10,10,10h0.154c5.522,0,10-4.478,10-10c0-5.522-4.478-10-10-10
	H217.53z"/>
<g>
</g>
<g>
</g>
<g>
</g>
<g>
</g>
<g>
</g>
<g>
</g>
<g>
</g>
<g>
</g>
<g>
</g>
<g>
</g>
<g>
</g>
<g>
</g>
<g>
</g>
<g>
</g>
<g>
</g>
</svg>
