<?xml version="1.0" encoding="iso-8859-1"?>
<!-- Generator: Adobe Illustrator 19.0.0, SVG Export Plug-In . SVG Version: 6.00 Build 0)  -->
<svg version="1.1" id="Capa_1" xmlns="http://www.w3.org/2000/svg" xmlns:xlink="http://www.w3.org/1999/xlink" x="0px" y="0px"
	 viewBox="0 0 512 512" style="enable-background:new 0 0 512 512;" xml:space="preserve">
<path style="fill:#FEDA9B;" d="M118.462,274.641l-24.394,24.394c-47.045,47.045-69.392,113.379-60.403,179.3l0,0l0,0
	c65.922,8.989,132.256-13.358,179.3-60.403l24.394-24.394L118.462,274.641z"/>
<path style="fill:#FFB954;" d="M154.21,305.334l-10.762,10.762c-20.757,20.757-30.616,50.022-26.65,79.107l0,0l0,0
	c29.085,3.966,58.351-5.893,79.107-26.65l10.762-10.762L154.21,305.334z"/>
<path style="fill:#72D8FF;" d="M74.441,225.565L10,161.124l4.708-4.708c52.724-52.724,128.013-76.135,201.339-62.605l0,0
	l202.143,202.143l0,0c13.53,73.326-9.881,148.615-62.605,201.339l-4.708,4.708l-64.441-64.441L74.441,225.565z"/>
<path style="fill:#FFFFFF;" d="M501.555,10.447L501.555,10.447L501.555,10.447C372.104,4.814,246.232,53.774,154.611,145.396
	l-80.17,80.17L286.436,437.56l80.17-80.17C458.228,265.769,507.187,139.898,501.555,10.447z"/>
<path style="fill:#72D8FF;" d="M477.617,178.631c18.111-53.543,26.448-110.506,23.938-168.184l0,0l0,0
	c-57.677-2.51-114.64,5.828-168.184,23.938L477.617,178.631z"/>
<circle style="fill:#FF5D5D;" cx="284.636" cy="227.147" r="87.999"/>
<circle style="fill:#FFFFFF;" cx="284.636" cy="227.147" r="47.999"/>
<path d="M511.545,10.012c-0.226-5.182-4.375-9.33-9.556-9.556C436.174-2.408,371.67,8.249,310.272,32.13
	c-34.4,13.381-66.713,30.483-96.673,51.127C138.381,70.793,61.676,95.305,7.638,149.344l-4.708,4.708
	C1.054,155.927,0,158.471,0,161.123c0,2.652,1.054,5.195,2.929,7.071l103.918,103.918l-19.85,19.85
	c-24.167,24.168-42.708,54.062-53.619,86.451c-10.912,32.389-14.238,67.408-9.62,101.272c0.607,4.45,4.106,7.95,8.557,8.557
	c9.909,1.352,19.913,2.022,29.925,2.022c24.205-0.001,48.436-3.924,71.348-11.643c32.389-10.911,62.283-29.453,86.45-53.619
	l19.85-19.85l103.918,103.918c1.953,1.952,4.512,2.929,7.071,2.929s5.118-0.977,7.071-2.929l4.709-4.708
	c54.04-54.041,78.554-130.743,66.087-205.963c20.644-29.96,37.746-62.272,51.127-96.673
	C503.751,140.332,514.409,75.829,511.545,10.012z M190.06,100.593c-14.833,11.652-29.023,24.233-42.52,37.73l-73.098,73.099
	l-50.281-50.28C68.574,118.072,128.997,96.308,190.06,100.593z M161.681,152.466c87.221-87.221,207.097-135.168,330.19-132.337
	c1.089,47.631-5.427,94.78-18.871,139.743l-72.623-72.624c-3.906-3.903-10.237-3.903-14.142,0c-3.905,3.905-3.905,10.237,0,14.143
	l79.809,79.81c-22.282,63.01-58.421,121.029-106.51,169.118l-73.098,73.099L88.583,225.565L161.681,152.466z M155.569,320.835
	l10.728,10.728l-15.578,15.578c-3.905,3.905-3.905,10.237,0,14.143c1.953,1.952,4.512,2.929,7.071,2.929
	c2.559,0,5.119-0.977,7.071-2.929l15.578-15.578l10.728,10.728l-6.43,6.43c-15.539,15.539-37.105,23.899-58.905,23.094
	c-1.935-23.372,3.179-38.563,17.253-52.637L155.569,320.835z M205.896,410.861c-42.737,42.737-103.253,64.282-163.215,58.459
	c-5.821-59.966,15.723-120.477,58.46-163.215l19.85-19.85l20.437,20.437l-12.485,12.485c-25.282,25.282-25.335,53.302-22.052,77.378
	c0.607,4.45,4.106,7.95,8.557,8.557c4.397,0.6,8.803,0.895,13.199,0.894c26.083-0.001,51.615-10.381,70.233-29l6.43-6.43
	l20.437,20.437L205.896,410.861z M350.859,487.841l-50.28-50.281l73.098-73.099c13.499-13.499,26.079-27.688,37.73-42.52
	C415.691,383.002,393.929,443.427,350.859,487.841z"/>
<path d="M284.641,169.153c-31.98,0-57.999,26.019-57.999,57.999s26.019,57.999,57.999,57.999s57.999-26.019,57.999-57.999
	S316.621,169.153,284.641,169.153z M284.641,189.153c7.118,0,13.782,1.971,19.484,5.391l-52.092,52.092
	c-3.419-5.701-5.391-12.366-5.391-19.484C246.641,206.2,263.688,189.153,284.641,189.153z M284.641,265.152
	c-6.587,0-12.786-1.687-18.192-4.647l51.544-51.544c2.961,5.406,4.648,11.606,4.648,18.193
	C322.64,248.105,305.593,265.152,284.641,265.152z"/>
<path d="M382.639,227.152c0-54.036-43.961-97.998-97.998-97.998s-97.998,43.962-97.998,97.998s43.961,97.998,97.998,97.998
	S382.639,281.188,382.639,227.152z M284.641,305.151c-43.008,0-77.999-34.989-77.999-77.999s34.99-77.999,77.999-77.999
	s77.999,34.989,77.999,77.999S327.649,305.151,284.641,305.151z"/>
<path d="M364.834,75.838c2.63,0,5.21-1.061,7.07-2.931c1.86-1.859,2.93-4.43,2.93-7.06c0-2.64-1.07-5.21-2.93-7.08
	c-1.86-1.86-4.44-2.92-7.07-2.92c-2.64,0-5.22,1.06-7.08,2.92c-1.86,1.86-2.92,4.44-2.92,7.08c0,2.63,1.06,5.2,2.92,7.06
	C359.624,74.778,362.194,75.838,364.834,75.838z"/>
<g>
</g>
<g>
</g>
<g>
</g>
<g>
</g>
<g>
</g>
<g>
</g>
<g>
</g>
<g>
</g>
<g>
</g>
<g>
</g>
<g>
</g>
<g>
</g>
<g>
</g>
<g>
</g>
<g>
</g>
</svg>
