<?xml version="1.0" encoding="iso-8859-1"?>
<!-- Generator: Adobe Illustrator 19.0.0, SVG Export Plug-In . SVG Version: 6.00 Build 0)  -->
<svg version="1.1" id="Capa_1" xmlns="http://www.w3.org/2000/svg" xmlns:xlink="http://www.w3.org/1999/xlink" x="0px" y="0px"
	 viewBox="0 0 512 512" style="enable-background:new 0 0 512 512;" xml:space="preserve">
<ellipse transform="matrix(-0.866 0.5 -0.5 -0.866 605.7795 349.9011)" style="fill:#D8FB93;" cx="256.011" cy="256.112" rx="245.885" ry="91.998"/>
<ellipse style="fill:#C9F3FF;" cx="256.019" cy="256" rx="92" ry="246"/>
<ellipse transform="matrix(-0.866 -0.5 0.5 -0.866 349.6622 605.9174)" style="fill:#FEDA9B;" cx="256.011" cy="256.112" rx="245.885" ry="91.998"/>
<circle style="fill:#72D8FF;" cx="256.149" cy="255.87" r="39.37"/>
<path d="M312.288,451.232c-4.834-2.67-10.918-0.912-13.587,3.923l-0.19,0.343c-2.697,4.819-0.978,10.912,3.842,13.61
	c1.546,0.864,3.222,1.275,4.875,1.275c3.503,0,6.903-1.844,8.735-5.118l0.249-0.446C318.881,459.983,317.124,453.9,312.288,451.232z
	"/>
<path d="M424.781,256c8.057-8.083,15.466-16.197,22.125-24.276c34.395-41.732,45.339-78.568,30.815-103.724
	c-5.771-9.995-15.14-17.503-27.849-22.318c-5.165-1.958-10.938,0.644-12.894,5.809c-1.957,5.165,0.645,10.938,5.809,12.894
	c8.283,3.138,14.209,7.718,17.613,13.615c9.905,17.156-0.64,46.681-28.929,81.004c-6.349,7.704-13.429,15.449-21.14,23.174
	c-16.32-14.915-34.755-29.597-54.794-43.635c-2.137-24.366-5.634-47.665-10.388-69.25c6.9-1.849,13.669-3.462,20.269-4.811
	c5.411-1.106,8.9-6.39,7.794-11.801s-6.389-8.898-11.801-7.794c-6.847,1.4-13.863,3.068-21.008,4.976
	c-2.973-11.025-6.296-21.503-9.965-31.314C311.495,27.896,285.066,0,256.019,0s-55.477,27.896-74.42,78.549
	c-3.667,9.806-6.989,20.279-9.961,31.299c-11.029-2.936-21.76-5.296-32.086-7.023C86.212,93.903,48.839,102.843,34.316,128
	c-5.77,9.995-7.588,21.864-5.402,35.276c0.888,5.451,6.025,9.143,11.478,8.262c5.451-0.889,9.149-6.027,8.261-11.479
	c-1.424-8.741-0.42-16.164,2.984-22.06c9.905-17.155,40.746-22.786,84.616-15.449c9.846,1.647,20.094,3.905,30.64,6.721
	c-4.757,21.591-8.254,44.897-10.392,69.27c-20.033,14.034-38.462,28.711-54.779,43.622c-5.052-5.052-9.833-10.107-14.301-15.148
	c-3.663-4.132-9.983-4.514-14.117-0.849c-4.132,3.664-4.513,9.984-0.849,14.117c4.636,5.229,9.589,10.471,14.814,15.705
	c-8.061,8.087-15.474,16.204-22.136,24.286C30.736,322.008,19.793,358.845,34.316,384c10.854,18.801,34.467,28.544,67.974,28.543
	c11.326,0,23.787-1.114,37.262-3.367c10.326-1.727,21.057-4.087,32.086-7.023c2.972,11.019,6.294,21.492,9.961,31.298
	C200.542,484.104,226.971,512,256.019,512c11.541,0,22.728-4.359,33.252-12.958c4.277-3.494,4.911-9.794,1.417-14.071
	c-3.494-4.276-9.794-4.911-14.071-1.417c-6.859,5.604-13.79,8.446-20.598,8.446c-19.81,0-40.107-23.894-55.688-65.555
	c-3.497-9.35-6.664-19.354-9.499-29.895c21.077-6.676,43.009-15.3,65.186-25.635c22.17,10.332,44.096,18.953,65.167,25.629
	c-1.849,6.9-3.837,13.569-5.968,19.959c-1.747,5.239,1.083,10.903,6.323,12.65c5.241,1.746,10.903-1.083,12.65-6.322
	c2.211-6.629,4.274-13.54,6.195-20.682c11.035,2.938,21.771,5.299,32.101,7.027c13.478,2.254,25.934,3.367,37.262,3.367
	c33.502,0,57.12-9.744,67.974-28.543c14.523-25.155,3.58-61.992-30.815-103.725C440.247,272.197,432.838,264.083,424.781,256z
	 M395.826,256c-11.768,10.69-24.688,21.269-38.561,31.57c0.496-10.42,0.753-20.96,0.753-31.571c0-10.633-0.25-21.167-0.738-31.558
	C371.147,234.74,384.063,245.314,395.826,256z M174.019,256c0-15.758,0.561-31.273,1.65-46.39
	c12.547-8.502,25.704-16.745,39.35-24.624c13.6-7.852,27.336-15.123,41.027-21.753c13.627,6.612,27.335,13.879,40.973,21.753
	c13.646,7.879,26.803,16.122,39.35,24.624c1.089,15.117,1.65,30.633,1.65,46.39c0,15.704-0.571,31.235-1.675,46.407
	c-12.54,8.496-25.688,16.734-39.325,24.607c-13.646,7.879-27.364,15.151-41,21.766c-13.636-6.616-27.354-13.887-41-21.766
	c-13.6-7.852-26.764-16.112-39.352-24.655C174.579,287.252,174.019,271.747,174.019,256z M333.98,184.084
	c-8.755-5.618-17.753-11.102-26.962-16.418c-9.194-5.308-18.428-10.352-27.657-15.119c15.819-6.836,31.437-12.74,46.567-17.592
	C329.299,150.476,331.997,166.938,333.98,184.084z M200.331,85.555C215.912,43.894,236.209,20,256.019,20
	c19.81,0,40.107,23.894,55.688,65.555c3.5,9.359,6.67,19.372,9.506,29.923c-21.081,6.691-43.04,15.324-65.166,25.619
	c-22.187-10.341-44.128-18.969-65.214-25.648C193.667,104.909,196.834,94.905,200.331,85.555z M186.115,134.923
	c15.142,4.846,30.763,10.746,46.621,17.609c-9.272,4.781-18.529,9.828-27.718,15.133c-9.208,5.316-18.206,10.8-26.962,16.418
	C180.042,166.926,182.742,150.454,186.115,134.923z M154.754,287.511c-13.83-10.282-26.752-20.855-38.519-31.532
	c11.757-10.679,24.664-21.246,38.521-31.537c-0.488,10.391-0.738,20.925-0.738,31.558
	C154.019,266.617,154.268,277.135,154.754,287.511z M136.252,389.449c-43.868,7.34-74.711,1.706-84.616-15.449
	s0.64-46.681,28.929-81.004c6.355-7.711,13.442-15.463,21.161-23.195c16.335,14.911,34.791,29.611,54.77,43.626
	c2.138,24.384,5.637,47.701,10.395,69.301C156.346,385.544,146.099,387.802,136.252,389.449z M186.115,377.077
	c-3.374-15.536-6.075-32.015-8.06-49.18c8.776,5.639,17.775,11.133,26.964,16.438c9.208,5.316,18.456,10.367,27.7,15.14
	C216.867,366.335,201.251,372.233,186.115,377.077z M279.319,359.475c9.243-4.773,18.491-9.824,27.7-15.14
	c9.194-5.308,18.179-10.783,26.922-16.392c-1.989,17.118-4.685,33.596-8.049,49.124C310.765,372.225,295.16,366.331,279.319,359.475
	z M460.401,374c-9.905,17.155-40.748,22.786-84.616,15.449c-9.855-1.648-20.112-3.909-30.668-6.729
	c4.746-21.602,8.249-44.935,10.396-69.245c20.049-14.044,38.492-28.732,54.819-43.653c7.711,7.725,14.791,15.47,21.14,23.174
	C459.762,327.319,470.306,356.845,460.401,374z"/>
<path d="M53.651,208.555c1.751,0,3.525-0.46,5.136-1.427c4.736-2.841,6.271-8.984,3.43-13.72l-0.218-0.364
	c-2.829-4.744-8.967-6.295-13.71-3.468c-4.744,2.829-6.296,8.967-3.468,13.71l0.247,0.412
	C46.942,206.823,50.254,208.555,53.651,208.555z"/>
<path d="M406.954,119.46c0.066,0,0.132,0,0.198-0.002l0.419-0.007c5.522-0.089,9.926-4.639,9.836-10.161
	c-0.089-5.522-4.65-9.898-10.161-9.836l-0.484,0.008c-5.521,0.107-9.911,4.67-9.804,10.192
	C397.066,115.11,401.521,119.46,406.954,119.46z"/>
<path d="M256.146,305.246c27.225,0,49.373-22.148,49.373-49.373S283.37,206.5,256.146,206.5s-49.373,22.148-49.373,49.373
	S228.921,305.246,256.146,305.246z M256.146,226.5c16.196,0,29.373,13.177,29.373,29.373s-13.177,29.373-29.373,29.373
	s-29.373-13.177-29.373-29.373S239.949,226.5,256.146,226.5z"/>
<g>
</g>
<g>
</g>
<g>
</g>
<g>
</g>
<g>
</g>
<g>
</g>
<g>
</g>
<g>
</g>
<g>
</g>
<g>
</g>
<g>
</g>
<g>
</g>
<g>
</g>
<g>
</g>
<g>
</g>
</svg>
