<?xml version="1.0" encoding="utf-8"?>
<!-- Generator: Adobe Illustrator 24.1.3, SVG Export Plug-In . SVG Version: 6.00 Build 0)  -->
<svg version="1.1" id="Layer_1" xmlns="http://www.w3.org/2000/svg" xmlns:xlink="http://www.w3.org/1999/xlink" x="0px" y="0px"
	 viewBox="0 0 943.1 371.2" style="enable-background:new 0 0 943.1 371.2;" xml:space="preserve">
<style type="text/css">
	.st0{font-family:'Klee-Medium-83pv-RKSJ-H';}
	.st1{font-size:125.52px;}
	.st2{letter-spacing:-4;}
	.st3{letter-spacing:-2;}
	.st4{letter-spacing:2;}
	.st5{font-size:208.77px;}
	.st6{fill:#FF6666;stroke:#000000;stroke-width:2;stroke-miterlimit:10;}
	.st7{fill:#FFFF66;stroke:#000000;stroke-width:2;stroke-miterlimit:10;}
	.st8{fill:#99FF66;stroke:#000000;stroke-width:2;stroke-miterlimit:10;}
	.st9{fill:#6699FF;stroke:#000000;stroke-width:2;stroke-miterlimit:10;}
	.st10{fill:none;stroke:#000000;stroke-width:2;stroke-miterlimit:9.9999;}
</style>
<text transform="matrix(1 0 0 1 331.05 326.95)" class="st0 st1">x</text>
<text transform="matrix(1 0 0 1 399.57 326.95)" class="st0 st1">hanz</text>
<text transform="matrix(1 0 0 1 666.28 326.95)" class="st0 st1 st2">i.</text>
<text transform="matrix(1 0 0 1 725.22 326.95)" class="st0 st1 st3">c</text>
<text transform="matrix(1 0 0 1 783.2 326.95)" class="st0 st1 st4">o</text>
<text transform="matrix(1 0 0 1 848.24 326.95)" class="st0 st1">m</text>
<text transform="matrix(1 0 0 1 321.77 207.07)" class="st0 st5">學漢字</text>
<polygon class="st6" points="6.6,96.9 92.5,182.8 154.8,182.8 154.8,120.6 68.9,34.6 "/>
<polygon class="st7" points="240.6,34.8 154.6,120.7 154.6,183 216.9,183 302.9,97.1 "/>
<polygon class="st8" points="68.7,331.2 154.6,245.3 154.6,183 92.3,183 6.4,268.9 "/>
<polygon class="st9" points="303,268.8 217.1,182.8 154.8,182.8 154.8,245.1 240.7,331.1 "/>
<rect x="110.8" y="138.8" transform="matrix(0.7071 -0.7071 0.7071 0.7071 -83.9224 163.0299)" class="st10" width="88.1" height="88.1"/>
</svg>
