<svg id="Layer_1" data-name="Layer 1" xmlns="http://www.w3.org/2000/svg" viewBox="0 0 943.08 371.24"><defs><style>.cls-1{font-size:125.52px;font-family:Chalkboard;letter-spacing:-0.01em;}.cls-2{letter-spacing:0em;}.cls-3{letter-spacing:-0.04em;}.cls-4{letter-spacing:-0.03em;}.cls-5{letter-spacing:0.03em;}.cls-6{letter-spacing:0em;}.cls-7{font-size:208.77px;font-family:ArialUnicodeMS, Arial Unicode MS;}.cls-8{fill:#f66;}.cls-10,.cls-11,.cls-12,.cls-8,.cls-9{stroke:#000;stroke-miterlimit:10;stroke-width:2px;}.cls-9{fill:#ff6;}.cls-10{fill:#9f6;}.cls-11{fill:#69f;}.cls-12{fill:none;}</style></defs><text class="cls-1" transform="translate(326.05 304.95)">x<tspan class="cls-2" x="68.52" y="0">hanz</tspan><tspan class="cls-3" x="335.23" y="0">i.</tspan><tspan class="cls-4" x="394.17" y="0">c</tspan><tspan class="cls-5" x="452.15" y="0">o</tspan><tspan class="cls-6" x="517.19" y="0">m</tspan></text><text class="cls-7" transform="translate(316.77 185.07)">学汉字</text><polygon class="cls-8" points="1.58 74.92 87.51 160.84 149.81 160.84 149.81 98.55 63.88 12.62 1.58 74.92"/><polygon class="cls-9" points="235.56 12.79 149.64 98.72 149.64 161.02 211.94 161.02 297.86 75.09 235.56 12.79"/><polygon class="cls-10" points="63.71 309.24 149.64 223.32 149.64 161.02 87.34 161.02 1.41 246.94 63.71 309.24"/><polygon class="cls-11" points="298.04 246.77 212.11 160.84 149.81 160.84 149.81 223.15 235.74 309.07 298.04 246.77"/><rect class="cls-12" x="105.59" y="105.55" width="88.1" height="88.1" transform="translate(-61.79 160.88) rotate(-45)"/></svg>