<svg id="Layer_1" data-name="Layer 1" xmlns="http://www.w3.org/2000/svg" viewBox="0 0 942.37 371.24"><defs><style>.cls-1{font-size:125.52px;font-family:Chalkboard;letter-spacing:-0.01em;}.cls-2{letter-spacing:0em;}.cls-3{letter-spacing:-0.04em;}.cls-4{letter-spacing:-0.03em;}.cls-5{letter-spacing:0.03em;}.cls-6{letter-spacing:0em;}.cls-7{font-size:208.77px;font-family:ArialUnicodeMS, Arial Unicode MS;}.cls-8{fill:#f66;}.cls-10,.cls-11,.cls-12,.cls-8,.cls-9{stroke:#000;stroke-miterlimit:10;}.cls-9{fill:#ff6;}.cls-10{fill:#9f6;}.cls-11{fill:#69f;}.cls-12{fill:none;}</style></defs><text class="cls-1" transform="translate(325.34 304.95)">x<tspan class="cls-2" x="68.52" y="0">hanz</tspan><tspan class="cls-3" x="335.23" y="0">i.</tspan><tspan class="cls-4" x="394.17" y="0">c</tspan><tspan class="cls-5" x="452.15" y="0">o</tspan><tspan class="cls-6" x="517.19" y="0">m</tspan></text><text class="cls-7" transform="translate(316.07 185.07)">学汉字</text><polygon class="cls-8" points="0.88 74.92 86.8 160.84 149.1 160.84 149.1 98.55 63.18 12.62 0.88 74.92"/><polygon class="cls-9" points="234.86 12.79 148.93 98.72 148.93 161.02 211.23 161.02 297.16 75.09 234.86 12.79"/><polygon class="cls-10" points="63.01 309.24 148.93 223.32 148.93 161.02 86.63 161.02 0.71 246.94 63.01 309.24"/><polygon class="cls-11" points="297.33 246.77 211.4 160.84 149.1 160.84 149.1 223.15 235.03 309.07 297.33 246.77"/><rect class="cls-12" x="105.59" y="105.55" width="88.1" height="88.1" transform="translate(-62.5 160.88) rotate(-45)"/></svg>