<svg id="Layer_1" data-name="Layer 1" xmlns="http://www.w3.org/2000/svg" viewBox="0 0 941.63 371.24"><defs><style>.cls-1{font-size:125.52px;font-family:Chalkboard;letter-spacing:-0.01em;}.cls-2{letter-spacing:0em;}.cls-3{letter-spacing:-0.04em;}.cls-4{letter-spacing:-0.03em;}.cls-5{letter-spacing:0.03em;}.cls-6{letter-spacing:0em;}.cls-7{font-size:208.77px;font-family:ArialUnicodeMS, Arial Unicode MS;}.cls-8{fill:#ff6;}.cls-10,.cls-11,.cls-12,.cls-8,.cls-9{stroke:#000;stroke-miterlimit:10;}.cls-9{fill:#69f;}.cls-10{fill:#9f6;}.cls-11{fill:#f66;}.cls-12{fill:none;}</style></defs><text class="cls-1" transform="translate(324.59 304.95)">x<tspan class="cls-2" x="68.52" y="0">hanz</tspan><tspan class="cls-3" x="335.23" y="0">i.</tspan><tspan class="cls-4" x="394.17" y="0">c</tspan><tspan class="cls-5" x="452.15" y="0">o</tspan><tspan class="cls-6" x="517.19" y="0">m</tspan></text><text class="cls-7" transform="translate(315.32 185.07)">学汉字</text><polygon class="cls-8" points="149.08 161 191.49 161 297.46 55.03 255.06 12.63 149.08 118.6 149.08 161"/><polygon class="cls-9" points="149.08 161 149.08 203.41 255.06 309.38 297.46 266.97 191.49 161 149.08 161"/><polygon class="cls-10" points="149.08 161 106.68 161 0.71 266.97 43.11 309.38 149.08 203.41 149.08 161"/><polygon class="cls-11" points="149.08 161 149.08 118.6 43.11 12.63 0.71 55.03 106.68 161 149.08 161"/><rect class="cls-12" x="120.39" y="119.78" width="59.97" height="59.97" transform="translate(-63.15 161.44) rotate(-45)"/></svg>