<?xml version="1.0" encoding="utf-8"?>
<!-- Generator: Adobe Illustrator 24.1.3, SVG Export Plug-In . SVG Version: 6.00 Build 0)  -->
<svg version="1.1" id="Layer_1" xmlns="http://www.w3.org/2000/svg" xmlns:xlink="http://www.w3.org/1999/xlink" x="0px" y="0px"
	 viewBox="0 0 943.1 371.2" style="enable-background:new 0 0 943.1 371.2;" xml:space="preserve">
<style type="text/css">
	.st0{font-family:'Klee-Medium-83pv-RKSJ-H';}
	.st1{font-size:125.52px;}
	.st2{letter-spacing:-1;}
	.st3{letter-spacing:-5;}
	.st4{letter-spacing:-3;}
	.st5{letter-spacing:3;}
	.st6{font-size:208.77px;}
	.st7{fill:#FF6666;stroke:#000000;stroke-width:2;stroke-miterlimit:10;}
	.st8{fill:#FFFF66;stroke:#000000;stroke-width:2;stroke-miterlimit:10;}
	.st9{fill:#99FF66;stroke:#000000;stroke-width:2;stroke-miterlimit:10;}
	.st10{fill:#6699FF;stroke:#000000;stroke-width:2;stroke-miterlimit:10;}
	.st11{fill:none;stroke:#000000;stroke-width:2;stroke-miterlimit:10;}
</style>
<text transform="matrix(1 0 0 1 329.05 328.95)" class="st0 st1 st2">x</text>
<text transform="matrix(1 0 0 1 397.57 328.95)" class="st0 st1">hanz</text>
<text transform="matrix(1 0 0 1 664.28 328.95)" class="st0 st1 st3">i.</text>
<text transform="matrix(1 0 0 1 723.22 328.95)" class="st0 st1 st4">c</text>
<text transform="matrix(1 0 0 1 781.2 328.95)" class="st0 st1 st5">o</text>
<text transform="matrix(1 0 0 1 846.24 328.95)" class="st0 st1">m</text>
<text transform="matrix(1 0 0 1 319.77 209.07)" class="st0 st6">學漢字</text>
<polygon class="st7" points="4.6,98.9 90.5,184.8 152.8,184.8 152.8,122.6 66.9,36.6 "/>
<polygon class="st8" points="238.6,36.8 152.6,122.7 152.6,185 214.9,185 300.9,99.1 "/>
<polygon class="st9" points="66.7,333.2 152.6,247.3 152.6,185 90.3,185 4.4,270.9 "/>
<polygon class="st10" points="301,270.8 215.1,184.8 152.8,184.8 152.8,247.1 238.7,333.1 "/>
<rect x="108.8" y="140.8" transform="matrix(0.7071 -0.7071 0.7071 0.7071 -85.9545 162.191)" class="st11" width="88.1" height="88.1"/>
</svg>
